<svg width="40" height="40" viewBox="0 0 40 40" fill="none" xmlns="http://www.w3.org/2000/svg">
<rect x="1" y="1" width="38" height="38" rx="7" fill="#414D5C" stroke="#414D5C" stroke-width="2"/>
<path d="M13.2432 12.1328H26.4883L26.5098 16.5693H25.876C25.6683 14.9867 25.0739 13.916 24.0928 13.3574C23.5413 13.0495 22.7178 12.8812 21.6221 12.8525V24.4326C21.6221 25.2419 21.7617 25.779 22.041 26.0439C22.3275 26.3089 22.9183 26.4414 23.8135 26.4414V27H15.9717V26.4414C16.8311 26.4414 17.4004 26.3089 17.6797 26.0439C17.9661 25.7718 18.1094 25.2347 18.1094 24.4326V12.8525C17.0352 12.8812 16.2116 13.0495 15.6387 13.3574C14.5859 13.9303 13.9915 15.001 13.8555 16.5693H13.2217L13.2432 12.1328Z" fill="#FBFBFB"/>
</svg>
