<svg width="40" height="40" viewBox="0 0 40 40" fill="none" xmlns="http://www.w3.org/2000/svg">
<rect x="1" y="1" width="38" height="38" rx="7" stroke="#414D5C" stroke-width="2"/>
<path fill-rule="evenodd" clip-rule="evenodd" d="M18.7937 20.3518L18.7931 20.3536L18.7925 20.3553C18.6532 20.7645 18.5845 21.1973 18.5845 21.652C18.5845 22.1428 18.6707 22.5847 18.8537 22.969L18.8555 22.9729L18.8575 22.9768C19.0414 23.3357 19.2761 23.6428 19.563 23.8938L19.5667 23.897L19.5706 23.9002C19.8617 24.1384 20.1818 24.3166 20.5297 24.4326C20.8698 24.546 21.2098 24.604 21.5485 24.604C21.9474 24.604 22.3274 24.5284 22.6859 24.3761L22.6875 24.3754L22.6891 24.3747C23.0486 24.2169 23.3635 24.0048 23.6309 23.7379C23.9059 23.4714 24.1231 23.1604 24.2821 22.8071L24.2827 22.8059L24.2832 22.8046C24.4444 22.4375 24.5245 22.0484 24.5245 21.64C24.5245 21.2317 24.4444 20.8455 24.2821 20.4849C24.1231 20.1315 23.9054 19.8237 23.6291 19.5643C23.3608 19.2969 23.0445 19.0886 22.6834 18.9389C22.4577 18.8453 22.225 18.7807 21.986 18.745C22.0457 18.6989 22.1075 18.6523 22.1713 18.6049C22.4168 18.4228 22.6704 18.2405 22.9321 18.0581C23.1957 17.8744 23.4433 17.7026 23.6749 17.543L23.9438 17.3575L23.7361 17.1053C23.6247 16.97 23.5094 16.8309 23.3902 16.6878C23.2776 16.5431 23.1649 16.4023 23.0521 16.2653L22.8741 16.0491L21.8902 16.7519C21.6033 16.9568 21.3093 17.1855 21.0082 17.4377C20.7117 17.6848 20.4201 17.9561 20.1333 18.251C19.8482 18.5445 19.5887 18.8669 19.3549 19.2176L19.354 19.219C19.1242 19.568 18.9375 19.9459 18.7937 20.3518ZM22.7136 22.1438L22.7158 22.139C22.7854 21.9871 22.8205 21.8259 22.8205 21.652C22.8205 21.4781 22.7854 21.3169 22.7158 21.165L22.7136 21.1602L22.7116 21.1554C22.6463 20.9988 22.5561 20.8638 22.4404 20.7481C22.3247 20.6324 22.1898 20.5422 22.0331 20.4769C21.8791 20.4127 21.7145 20.38 21.5365 20.38C21.3689 20.38 21.2088 20.4119 21.0541 20.476C20.9076 20.54 20.7819 20.6284 20.6746 20.742C20.5648 20.8583 20.4762 20.9952 20.4095 21.1554C20.3453 21.3094 20.3125 21.4741 20.3125 21.652C20.3125 21.8299 20.3453 21.9946 20.4095 22.1486C20.4762 22.3088 20.5648 22.4457 20.6746 22.562C20.7834 22.6771 20.9114 22.7707 21.061 22.843C21.2032 22.904 21.3605 22.936 21.5365 22.936C21.7126 22.936 21.8757 22.9039 22.0283 22.8411C22.1871 22.7677 22.3237 22.6725 22.4404 22.5559C22.5561 22.4402 22.6463 22.3052 22.7116 22.1486L22.7136 22.1438Z" fill="#414D5C"/>
<path d="M15 16V17.668H15.768V24.508H17.484V16H15Z" fill="#414D5C"/>
<rect x="10" y="12" width="20" height="17" stroke="#414D5C" stroke-width="2"/>
</svg>
