<svg width="40" height="40" viewBox="0 0 40 40" fill="none" xmlns="http://www.w3.org/2000/svg">
<rect x="1" y="1" width="38" height="38" rx="7" stroke="#414D5C" stroke-width="2"/>
<path d="M17.48 21.8H11.72C11.3224 21.8 11 22.1167 11 22.5073V28.2928C11 28.6834 11.3224 29 11.72 29H17.48C17.8776 29 18.2 28.6834 18.2 28.2928V22.5073C18.2 22.1167 17.8776 21.8 17.48 21.8Z" stroke="#414D5C" stroke-width="1.8"/>
<path d="M17.48 11H11.72C11.3224 11 11 11.3167 11 11.7073V17.4927C11 17.8833 11.3224 18.2 11.72 18.2H17.48C17.8776 18.2 18.2 17.8833 18.2 17.4927V11.7073C18.2 11.3167 17.8776 11 17.48 11Z" stroke="#414D5C" stroke-width="1.8"/>
<path d="M28.2798 11H22.5198C22.1222 11 21.7998 11.3167 21.7998 11.7073V17.4927C21.7998 17.8833 22.1222 18.2 22.5198 18.2H28.2798C28.6774 18.2 28.9998 17.8833 28.9998 17.4927V11.7073C28.9998 11.3167 28.6774 11 28.2798 11Z" fill="#414D5C" stroke="#414D5C" stroke-width="1.8"/>
<path d="M28.2798 21.8H22.5198C22.1222 21.8 21.7998 22.1167 21.7998 22.5073V28.2928C21.7998 28.6834 22.1222 29 22.5198 29H28.2798C28.6774 29 28.9998 28.6834 28.9998 28.2928V22.5073C28.9998 22.1167 28.6774 21.8 28.2798 21.8Z" stroke="#414D5C" stroke-width="1.8"/>
</svg>
