<svg width="40" height="40" viewBox="0 0 40 40" fill="none" xmlns="http://www.w3.org/2000/svg">
<rect x="1" y="1" width="38" height="38" rx="7" fill="#414D5C" stroke="#414D5C" stroke-width="2"/>
<path d="M10.25 10.1V29.6C10.25 29.6828 10.3172 29.75 10.4 29.75H29.9" stroke="#FBFBFB" stroke-width="2" stroke-linecap="square"/>
<path d="M15.8004 21.15V18.395C15.8004 18.3701 15.7802 18.35 15.7554 18.35H14.6004H13.4454C13.4205 18.35 13.4004 18.3701 13.4004 18.395V21.15V23.95V26.705C13.4004 26.7298 13.4205 26.75 13.4454 26.75H14.6004H15.7554C15.7802 26.75 15.8004 26.7298 15.8004 26.705V23.95V21.15Z" stroke="#FBFBFB" stroke-width="1.5" stroke-linecap="round"/>
<path d="M21.1998 23.0501V21.2451C21.1998 21.2202 21.1797 21.2001 21.1548 21.2001H19.9998H18.8448C18.82 21.2001 18.7998 21.2202 18.7998 21.2451V23.0501V24.9001V26.7051C18.7998 26.7299 18.82 26.7501 18.8448 26.7501H19.9998H21.1548C21.1797 26.7501 21.1998 26.7299 21.1998 26.7051V24.9001V23.0501Z" stroke="#FBFBFB" stroke-width="1.5" stroke-linecap="round"/>
<path d="M26.6002 18.05V13.745C26.6002 13.7201 26.58 13.7 26.5552 13.7H25.4002H24.2452C24.2203 13.7 24.2002 13.7201 24.2002 13.745V18.05V22.4V26.705C24.2002 26.7298 24.2203 26.75 24.2452 26.75H25.4002H26.5552C26.58 26.75 26.6002 26.7298 26.6002 26.705V22.4V18.05Z" stroke="#FBFBFB" stroke-width="1.5" stroke-linecap="round"/>
</svg>
