<svg width="14" height="14" viewBox="0 0 14 14" fill="none" xmlns="http://www.w3.org/2000/svg">
<path fill-rule="evenodd" clip-rule="evenodd" d="M4.375 5.25C4.375 3.80025 5.55025 2.625 7 2.625C8.44975 2.625 9.625 3.80025 9.625 5.25H4.375ZM12.25 5.25H11.375C11.375 2.83375 9.41625 0.875 7 0.875C4.58375 0.875 2.625 2.83375 2.625 5.25H1.75C1.26675 5.25 0.875 5.64175 0.875 6.125V12.25C0.875 12.7332 1.26675 13.125 1.75 13.125H12.25C12.7332 13.125 13.125 12.7332 13.125 12.25V6.125C13.125 5.64175 12.7332 5.25 12.25 5.25ZM2.625 11.375V7H11.375V11.375H2.625Z" fill="#879596"/>
</svg>
