<svg width="16" height="14" viewBox="0 0 16 16" fill="none"
  xmlns="http://www.w3.org/2000/svg">
  <g clip-path="url(#clip0_1095_92182)">
    <path class="center-dot" d="M8 8.89062C9.10457 8.89062 10 7.99519 10 6.89062C10 5.78606 9.10457 4.89062 8 4.89062C6.89543 4.89062 6 5.78606 6 6.89062C6 7.99519 6.89543 8.89062 8 8.89062Z" fill="#879596" stroke="#879596" stroke-miterlimit="10"/>
    <path d="M7.85 3C10.12 3 12.42 4.31 14.7 6.9C13.63 8.12 10.93 10.78 7.7 10.78C5.45 10.78 3.28 9.47 1.24 6.88C2.16 5.69 4.61 3 7.85 3ZM7.85 2C3.11 2 0 6.89 0 6.89C2.67 10.56 5.33 11.78 7.7 11.78C12.44 11.78 16 6.89 16 6.89C13 3.22 10.22 2 7.85 2Z" fill="#879596"/>
  </g>
  <defs>
    <clipPath id="clip0_1095_92182">
      <rect width="16" height="9.78" fill="white" transform="translate(0 2)"/>
    </clipPath>
  </defs>
</svg>
