<svg width="14" height="14" viewBox="0 0 14 14" fill="none" xmlns="http://www.w3.org/2000/svg">
<path fill-rule="evenodd" clip-rule="evenodd" d="M6.44851 0.910217C8.62925 0.633122 10.677 2.01724 11.2328 4.14408L9.53968 4.58658C9.20618 3.31047 7.97754 2.48 6.6691 2.64626C5.36066 2.81252 4.37876 3.92387 4.375 5.24033V6.11533H12.25C12.7332 6.11533 13.125 6.50708 13.125 6.99033V13.1153C13.125 13.5986 12.7332 13.9903 12.25 13.9903H1.75C1.26675 13.9903 0.875 13.5986 0.875 13.1153V6.99033C0.875 6.50708 1.26675 6.11533 1.75 6.11533H2.625L2.625 5.23783C2.63128 3.03957 4.26778 1.18731 6.44851 0.910217ZM2.625 7.86533V12.2403H11.375V7.86533H2.625Z" fill="#879596"/>
</svg>
