<svg width="40" height="40" viewBox="0 0 40 40" fill="none" xmlns="http://www.w3.org/2000/svg">
<rect x="1" y="1" width="38" height="38" rx="7" stroke="#414D5C" stroke-width="2"/>
<path d="M10.25 10.1001V29.6001C10.25 29.6829 10.3172 29.7501 10.4 29.7501H29.9" stroke="#414D5C" stroke-width="2" stroke-linecap="square"/>
<path d="M15.7999 21.1501V18.3951C15.7999 18.3702 15.7798 18.3501 15.7549 18.3501H14.5999H13.4449C13.42 18.3501 13.3999 18.3702 13.3999 18.3951V21.1501V23.9501V26.7051C13.3999 26.73 13.42 26.7501 13.4449 26.7501H14.5999H15.7549C15.7798 26.7501 15.7999 26.73 15.7999 26.7051V23.9501V21.1501Z" stroke="#414D5C" stroke-width="1.5" stroke-linecap="round"/>
<path d="M21.1998 23.0502V21.2452C21.1998 21.2203 21.1797 21.2002 21.1548 21.2002H19.9998H18.8448C18.82 21.2002 18.7998 21.2203 18.7998 21.2452V23.0502V24.9002V26.7052C18.7998 26.73 18.82 26.7502 18.8448 26.7502H19.9998H21.1548C21.1797 26.7502 21.1998 26.73 21.1998 26.7052V24.9002V23.0502Z" stroke="#414D5C" stroke-width="1.5" stroke-linecap="round"/>
<path d="M26.6002 18.0502V13.7452C26.6002 13.7203 26.58 13.7002 26.5552 13.7002H25.4002H24.2452C24.2203 13.7002 24.2002 13.7203 24.2002 13.7452V18.0502V22.4002V26.7052C24.2002 26.73 24.2203 26.7502 24.2452 26.7502H25.4002H26.5552C26.58 26.7502 26.6002 26.73 26.6002 26.7052V22.4002V18.0502Z" stroke="#414D5C" stroke-width="1.5" stroke-linecap="round"/>
</svg>
