<svg width="14" height="12" viewBox="0 0 14 12" fill="none" xmlns="http://www.w3.org/2000/svg">
    <path fill-rule="evenodd" clip-rule="evenodd" d="M12.0425 1.31703C12.2183 1.14129 12.2183 0.856366 12.0425 0.68063C11.8668 0.504894 11.5819 0.504894 11.4061 0.68063L1.80614 10.2806C1.63041 10.4564 1.63041 10.7413 1.80614 10.917C1.98188 11.0928 2.2668 11.0928 2.44254 10.917L4.15068 9.20889C4.97046 9.59479 5.91465 9.84883 6.92434 9.84883C8.53475 9.84883 9.97855 9.20258 11.0167 8.40581C11.5368 8.00666 11.9663 7.56136 12.2697 7.12414C12.5647 6.699 12.7743 6.23245 12.7743 5.79883C12.7743 5.36521 12.5647 4.89866 12.2697 4.47352C11.9663 4.0363 11.5368 3.591 11.0167 3.19185C10.8594 3.07114 10.6928 2.95388 10.5178 2.8418L12.0425 1.31703ZM9.86406 3.4955L8.80156 4.558C9.03715 4.9137 9.17434 5.34024 9.17434 5.79883C9.17434 7.04147 8.16698 8.04883 6.92434 8.04883C6.46575 8.04883 6.03921 7.91163 5.68352 7.67605L4.83348 8.52608C5.4728 8.78653 6.18161 8.94883 6.92434 8.94883C8.29627 8.94883 9.55247 8.39508 10.4687 7.69185C10.9259 7.341 11.2872 6.96129 11.5303 6.61102C11.7818 6.24866 11.8743 5.96521 11.8743 5.79883C11.8743 5.63245 11.7818 5.349 11.5303 4.98664C11.2872 4.63636 10.9259 4.25666 10.4687 3.90581C10.2808 3.76159 10.0786 3.62366 9.86406 3.4955ZM6.3423 7.01726C6.51854 7.1016 6.71592 7.14883 6.92434 7.14883C7.66992 7.14883 8.27434 6.54441 8.27434 5.79883C8.27434 5.59041 8.22711 5.39303 8.14277 5.21679L6.3423 7.01726Z" fill="#414D5C"/>
    <path d="M6.92434 1.74883C7.48626 1.74883 8.02789 1.82751 8.53908 1.96381C8.71873 2.01171 8.77205 2.23473 8.64058 2.3662L8.30021 2.70656C8.23836 2.76842 8.14878 2.79302 8.06334 2.77427C7.69652 2.69376 7.31512 2.64883 6.92434 2.64883C5.55241 2.64883 4.29621 3.20258 3.37994 3.90581C2.92281 4.25666 2.56148 4.63636 2.3184 4.98664C2.06693 5.349 1.97434 5.63245 1.97434 5.79883C1.97434 5.96521 2.06693 6.24866 2.3184 6.61102C2.51422 6.89319 2.78677 7.19446 3.12434 7.48436C3.23833 7.58226 3.24952 7.75726 3.14327 7.86351L2.86144 8.14534C2.77113 8.23565 2.62691 8.24376 2.53015 8.1604C2.14463 7.82828 1.82154 7.47363 1.579 7.12414C1.28396 6.699 1.07434 6.23245 1.07434 5.79883C1.07434 5.36521 1.28396 4.89866 1.579 4.47352C1.88243 4.0363 2.31191 3.591 2.83198 3.19185C3.87013 2.39508 5.31393 1.74883 6.92434 1.74883Z" fill="#414D5C"/>
    <path d="M6.92434 3.54883C6.93372 3.54883 6.94308 3.54889 6.95243 3.549C7.15012 3.55142 7.22253 3.78425 7.08273 3.92405L6.48477 4.52201C6.09279 4.65693 5.78244 4.96727 5.64752 5.35926L5.04956 5.95722C4.90976 6.09702 4.67693 6.02461 4.67451 5.82692C4.6744 5.81757 4.67434 5.80821 4.67434 5.79883C4.67434 4.55619 5.6817 3.54883 6.92434 3.54883Z" fill="#414D5C"/>
    <path fill-rule="evenodd" clip-rule="evenodd" d="M12.0425 1.31703C12.2183 1.14129 12.2183 0.856366 12.0425 0.68063C11.8668 0.504894 11.5819 0.504894 11.4061 0.68063L1.80614 10.2806C1.63041 10.4564 1.63041 10.7413 1.80614 10.917C1.98188 11.0928 2.2668 11.0928 2.44254 10.917L4.15068 9.20889C4.97046 9.59479 5.91465 9.84883 6.92434 9.84883C8.53475 9.84883 9.97855 9.20258 11.0167 8.40581C11.5368 8.00666 11.9663 7.56136 12.2697 7.12414C12.5647 6.699 12.7743 6.23245 12.7743 5.79883C12.7743 5.36521 12.5647 4.89866 12.2697 4.47352C11.9663 4.0363 11.5368 3.591 11.0167 3.19185C10.8594 3.07114 10.6928 2.95388 10.5178 2.8418L12.0425 1.31703ZM9.86406 3.4955L8.80156 4.558C9.03715 4.9137 9.17434 5.34024 9.17434 5.79883C9.17434 7.04147 8.16698 8.04883 6.92434 8.04883C6.46575 8.04883 6.03921 7.91163 5.68352 7.67605L4.83348 8.52608C5.4728 8.78653 6.18161 8.94883 6.92434 8.94883C8.29627 8.94883 9.55247 8.39508 10.4687 7.69185C10.9259 7.341 11.2872 6.96129 11.5303 6.61102C11.7818 6.24866 11.8743 5.96521 11.8743 5.79883C11.8743 5.63245 11.7818 5.349 11.5303 4.98664C11.2872 4.63636 10.9259 4.25666 10.4687 3.90581C10.2808 3.76159 10.0786 3.62366 9.86406 3.4955ZM6.3423 7.01726C6.51854 7.1016 6.71592 7.14883 6.92434 7.14883C7.66992 7.14883 8.27434 6.54441 8.27434 5.79883C8.27434 5.59041 8.22711 5.39303 8.14277 5.21679L6.3423 7.01726Z" stroke="#414D5C" stroke-width="0.5" stroke-linecap="round"/>
    <path d="M6.92434 1.74883C7.48626 1.74883 8.02789 1.82751 8.53908 1.96381C8.71873 2.01171 8.77205 2.23473 8.64058 2.3662L8.30021 2.70656C8.23836 2.76842 8.14878 2.79302 8.06334 2.77427C7.69652 2.69376 7.31512 2.64883 6.92434 2.64883C5.55241 2.64883 4.29621 3.20258 3.37994 3.90581C2.92281 4.25666 2.56148 4.63636 2.3184 4.98664C2.06693 5.349 1.97434 5.63245 1.97434 5.79883C1.97434 5.96521 2.06693 6.24866 2.3184 6.61102C2.51422 6.89319 2.78677 7.19446 3.12434 7.48436C3.23833 7.58226 3.24952 7.75726 3.14327 7.86351L2.86144 8.14534C2.77113 8.23565 2.62691 8.24376 2.53015 8.1604C2.14463 7.82828 1.82154 7.47363 1.579 7.12414C1.28396 6.699 1.07434 6.23245 1.07434 5.79883C1.07434 5.36521 1.28396 4.89866 1.579 4.47352C1.88243 4.0363 2.31191 3.591 2.83198 3.19185C3.87013 2.39508 5.31393 1.74883 6.92434 1.74883Z" stroke="#414D5C" stroke-width="0.5" stroke-linecap="round"/>
    <path d="M6.92434 3.54883C6.93372 3.54883 6.94308 3.54889 6.95243 3.549C7.15012 3.55142 7.22253 3.78425 7.08273 3.92405L6.48477 4.52201C6.09279 4.65693 5.78244 4.96727 5.64752 5.35926L5.04956 5.95722C4.90976 6.09702 4.67693 6.02461 4.67451 5.82692C4.6744 5.81757 4.67434 5.80821 4.67434 5.79883C4.67434 4.55619 5.6817 3.54883 6.92434 3.54883Z" stroke="#414D5C" stroke-width="0.5" stroke-linecap="round"/>
</svg>
