<svg width="13" height="10" viewBox="0 0 13 10" fill="none" xmlns="http://www.w3.org/2000/svg">
    <path fill-rule="evenodd" clip-rule="evenodd" d="M4.03418 5C4.03418 3.70558 5.08351 2.65625 6.37793 2.65625C7.67235 2.65625 8.72168 3.70558 8.72168 5C8.72168 6.29442 7.67235 7.34375 6.37793 7.34375C5.08351 7.34375 4.03418 6.29442 4.03418 5ZM6.37793 3.59375C5.60128 3.59375 4.97168 4.22335 4.97168 5C4.97168 5.77665 5.60128 6.40625 6.37793 6.40625C7.15458 6.40625 7.78418 5.77665 7.78418 5C7.78418 4.22335 7.15458 3.59375 6.37793 3.59375Z" fill="#414D5C"/>
    <path fill-rule="evenodd" clip-rule="evenodd" d="M1.58007 4.15397C1.31812 4.53143 1.22168 4.82669 1.22168 5C1.22168 5.17331 1.31812 5.46857 1.58007 5.84603C1.83329 6.2109 2.20966 6.60643 2.68585 6.9719C3.64029 7.70442 4.94884 8.28125 6.37793 8.28125C7.80702 8.28125 9.11556 7.70442 10.07 6.9719C10.5462 6.60643 10.9226 6.2109 11.1758 5.84603C11.4377 5.46857 11.5342 5.17331 11.5342 5C11.5342 4.82669 11.4377 4.53143 11.1758 4.15397C10.9226 3.7891 10.5462 3.39357 10.07 3.0281C9.11556 2.29558 7.42909 1.5 6 1.5C4.57091 1.5 3.64029 2.29558 2.68585 3.0281C2.20966 3.39357 1.83329 3.7891 1.58007 4.15397ZM2.11506 2.2844C3.19646 1.45442 4.70042 0.78125 6.37793 0.78125C8.05544 0.78125 9.5594 1.45442 10.6408 2.2844C11.1825 2.70018 11.6299 3.16403 11.946 3.61947C12.2533 4.06232 12.4717 4.54831 12.4717 5C12.4717 5.45169 12.2533 5.93768 11.946 6.38053C11.6299 6.83597 11.1825 7.29982 10.6408 7.7156C9.5594 8.54558 8.05544 9.21875 6.37793 9.21875C4.70042 9.21875 3.19646 8.54558 2.11506 7.7156C1.57332 7.29982 1.12593 6.83597 0.809869 6.38053C0.502537 5.93768 0.28418 5.45169 0.28418 5C0.28418 4.54831 0.502537 4.06232 0.809869 3.61947C1.12593 3.16403 1.57332 2.70018 2.11506 2.2844Z" fill="#414D5C"/>
    <path fill-rule="evenodd" clip-rule="evenodd" d="M4.03418 5C4.03418 3.70558 5.08351 2.65625 6.37793 2.65625C7.67235 2.65625 8.72168 3.70558 8.72168 5C8.72168 6.29442 7.67235 7.34375 6.37793 7.34375C5.08351 7.34375 4.03418 6.29442 4.03418 5ZM6.37793 3.59375C5.60128 3.59375 4.97168 4.22335 4.97168 5C4.97168 5.77665 5.60128 6.40625 6.37793 6.40625C7.15458 6.40625 7.78418 5.77665 7.78418 5C7.78418 4.22335 7.15458 3.59375 6.37793 3.59375Z" stroke="#414D5C" stroke-width="0.5"/>
    <path fill-rule="evenodd" clip-rule="evenodd" d="M1.58007 4.15397C1.31812 4.53143 1.22168 4.82669 1.22168 5C1.22168 5.17331 1.31812 5.46857 1.58007 5.84603C1.83329 6.2109 2.20966 6.60643 2.68585 6.9719C3.64029 7.70442 4.94884 8.28125 6.37793 8.28125C7.80702 8.28125 9.11556 7.70442 10.07 6.9719C10.5462 6.60643 10.9226 6.2109 11.1758 5.84603C11.4377 5.46857 11.5342 5.17331 11.5342 5C11.5342 4.82669 11.4377 4.53143 11.1758 4.15397C10.9226 3.7891 10.5462 3.39357 10.07 3.0281C9.11556 2.29558 7.42909 1.5 6 1.5C4.57091 1.5 3.64029 2.29558 2.68585 3.0281C2.20966 3.39357 1.83329 3.7891 1.58007 4.15397ZM2.11506 2.2844C3.19646 1.45442 4.70042 0.78125 6.37793 0.78125C8.05544 0.78125 9.5594 1.45442 10.6408 2.2844C11.1825 2.70018 11.6299 3.16403 11.946 3.61947C12.2533 4.06232 12.4717 4.54831 12.4717 5C12.4717 5.45169 12.2533 5.93768 11.946 6.38053C11.6299 6.83597 11.1825 7.29982 10.6408 7.7156C9.5594 8.54558 8.05544 9.21875 6.37793 9.21875C4.70042 9.21875 3.19646 8.54558 2.11506 7.7156C1.57332 7.29982 1.12593 6.83597 0.809869 6.38053C0.502537 5.93768 0.28418 5.45169 0.28418 5C0.28418 4.54831 0.502537 4.06232 0.809869 3.61947C1.12593 3.16403 1.57332 2.70018 2.11506 2.2844Z" stroke="#414D5C" stroke-width="0.5"/>
</svg>
