<svg width="155" height="124" viewBox="0 0 155 124" fill="none" xmlns="http://www.w3.org/2000/svg">
<rect x="1" y="1.46582" width="130.763" height="32.2769" rx="2" fill="white" stroke="#000716" stroke-width="2"/>
<circle cx="111.069" cy="18.0183" r="7.27614" fill="#F4F4F4" stroke="#000716" stroke-width="2"/>
<line x1="16.7227" y1="17.0176" x2="78.7937" y2="17.0176" stroke="#000716" stroke-width="2"/>
<rect x="1" y="1" width="152.281" height="37.6519" rx="2" fill="white" stroke="#000716" stroke-width="2"/>
<line x1="35.7617" y1="19.4941" x2="93.3052" y2="19.4941" stroke="#000716" stroke-width="2"/>
<path d="M25.7031 18.8161C26.3698 19.201 26.3698 20.1632 25.7031 20.5481L13.7845 27.4294C13.1178 27.8143 12.2845 27.3332 12.2845 26.5634L12.2845 12.8009C12.2845 12.0311 13.1178 11.5499 13.7845 11.9348L25.7031 18.8161Z" fill="#000716" stroke="#000716" stroke-width="2"/>
<circle cx="129.435" cy="20.6622" r="8.62215" fill="#89BDEE" stroke="#000716" stroke-width="2"/>
<path d="M125.1 20.6286L128.054 23.7944L133.964 17.4629" stroke="#000716" stroke-width="2"/>
<rect x="1" y="48.2773" width="130.763" height="32.2769" rx="2" fill="white" stroke="#000716" stroke-width="2"/>
<circle cx="111.069" cy="64.8298" r="7.27614" fill="#F4F4F4" stroke="#000716" stroke-width="2"/>
<line x1="16.7227" y1="63.8291" x2="78.7937" y2="63.8291" stroke="#000716" stroke-width="2"/>
<rect x="1" y="90.1787" width="130.763" height="32.2769" rx="2" fill="white" stroke="#000716" stroke-width="2"/>
<circle cx="111.069" cy="106.731" r="7.27614" fill="#F4F4F4" stroke="#000716" stroke-width="2"/>
<line x1="16.7227" y1="105.73" x2="78.7937" y2="105.73" stroke="#000716" stroke-width="2"/>
</svg>
